<mxfile host="Electron" modified="2023-07-27T20:31:17.898Z" agent="Mozilla/5.0 (Macintosh; Intel Mac OS X 10_15_7) AppleWebKit/537.36 (KHTML, like Gecko) draw.io/21.6.5 Chrome/114.0.5735.243 Electron/25.3.1 Safari/537.36" etag="ZgG4eeae8g5fKPWDEJcb" version="21.6.5" type="device">
  <diagram name="Page-1" id="undLFyx_fRWjC1I0D35y">
    <mxGraphModel dx="1293" dy="1225" grid="1" gridSize="10" guides="1" tooltips="1" connect="1" arrows="1" fold="1" page="1" pageScale="1" pageWidth="1169" pageHeight="827" math="0" shadow="0">
      <root>
        <mxCell id="0" />
        <mxCell id="1" parent="0" />
        <mxCell id="gpTX0k5Hapi8h8UuWfs9-1" value="PATCH_LOAD_DATA" style="rounded=0;whiteSpace=wrap;html=1;fontSize=10;fillColor=#60a917;fontColor=#ffffff;strokeColor=#2D7600;" parent="1" vertex="1">
          <mxGeometry x="422" y="39.24" width="120" height="40" as="geometry" />
        </mxCell>
        <mxCell id="gpTX0k5Hapi8h8UuWfs9-2" value="EGS_RESET_VOICES" style="rounded=0;whiteSpace=wrap;html=1;fontSize=10;fillColor=#60a917;fontColor=#ffffff;strokeColor=#2D7600;" parent="1" vertex="1">
          <mxGeometry x="22" y="119.24" width="160" height="40" as="geometry" />
        </mxCell>
        <mxCell id="gpTX0k5Hapi8h8UuWfs9-3" value="" style="endArrow=classic;html=1;rounded=0;entryX=0.75;entryY=0;entryDx=0;entryDy=0;edgeStyle=orthogonalEdgeStyle;" parent="1" source="gpTX0k5Hapi8h8UuWfs9-1" target="gpTX0k5Hapi8h8UuWfs9-2" edge="1">
          <mxGeometry width="50" height="50" relative="1" as="geometry">
            <mxPoint x="352" y="329.24" as="sourcePoint" />
            <mxPoint x="402" y="279.24" as="targetPoint" />
            <Array as="points">
              <mxPoint x="482" y="99.24" />
              <mxPoint x="142" y="99.24" />
            </Array>
          </mxGeometry>
        </mxCell>
        <mxCell id="gpTX0k5Hapi8h8UuWfs9-4" value="PATCH_LOAD_CALL_FUNC_PTR" style="rounded=0;whiteSpace=wrap;html=1;fontSize=10;labelBackgroundColor=none;fillColor=#60a917;fontColor=#ffffff;strokeColor=#2D7600;" parent="1" vertex="1">
          <mxGeometry x="222" y="119.24" width="175" height="40" as="geometry" />
        </mxCell>
        <mxCell id="gpTX0k5Hapi8h8UuWfs9-5" value="" style="endArrow=classic;html=1;rounded=0;entryX=0.457;entryY=-0.005;entryDx=0;entryDy=0;edgeStyle=orthogonalEdgeStyle;exitX=0.5;exitY=1;exitDx=0;exitDy=0;entryPerimeter=0;" parent="1" source="gpTX0k5Hapi8h8UuWfs9-1" target="gpTX0k5Hapi8h8UuWfs9-4" edge="1">
          <mxGeometry width="50" height="50" relative="1" as="geometry">
            <mxPoint x="372" y="89.24" as="sourcePoint" />
            <mxPoint x="270" y="139.24" as="targetPoint" />
            <Array as="points">
              <mxPoint x="482" y="99.24" />
              <mxPoint x="302" y="99.24" />
            </Array>
          </mxGeometry>
        </mxCell>
        <mxCell id="gpTX0k5Hapi8h8UuWfs9-8" value="PATCH_LOAD_PITCH_EG_VALUES" style="rounded=0;whiteSpace=wrap;html=1;fontSize=10;fillColor=#60a917;fontColor=#ffffff;strokeColor=#2D7600;" parent="1" vertex="1">
          <mxGeometry x="432" y="119.24" width="190" height="40" as="geometry" />
        </mxCell>
        <mxCell id="gpTX0k5Hapi8h8UuWfs9-11" value="" style="endArrow=classic;html=1;rounded=0;edgeStyle=orthogonalEdgeStyle;exitX=0.5;exitY=1;exitDx=0;exitDy=0;" parent="1" source="gpTX0k5Hapi8h8UuWfs9-1" edge="1">
          <mxGeometry width="50" height="50" relative="1" as="geometry">
            <mxPoint x="372" y="89.24" as="sourcePoint" />
            <mxPoint x="522" y="119.24" as="targetPoint" />
            <Array as="points">
              <mxPoint x="482" y="99.24" />
              <mxPoint x="522" y="99.24" />
            </Array>
          </mxGeometry>
        </mxCell>
        <mxCell id="gpTX0k5Hapi8h8UuWfs9-12" value="PATCH_LOAD_ALG_MODE" style="rounded=0;whiteSpace=wrap;html=1;fontSize=10;fillColor=#60a917;fontColor=#ffffff;strokeColor=#2D7600;" parent="1" vertex="1">
          <mxGeometry x="662" y="119.24" width="150" height="40" as="geometry" />
        </mxCell>
        <mxCell id="gpTX0k5Hapi8h8UuWfs9-13" value="" style="endArrow=classic;html=1;rounded=0;edgeStyle=orthogonalEdgeStyle;" parent="1" edge="1">
          <mxGeometry width="50" height="50" relative="1" as="geometry">
            <mxPoint x="362" y="99.24" as="sourcePoint" />
            <mxPoint x="702" y="119.24" as="targetPoint" />
            <Array as="points">
              <mxPoint x="702" y="99.24" />
              <mxPoint x="702" y="119.24" />
            </Array>
          </mxGeometry>
        </mxCell>
        <mxCell id="gpTX0k5Hapi8h8UuWfs9-14" value="PATCH_LOAD_LFO" style="rounded=0;whiteSpace=wrap;html=1;fontSize=10;fillColor=#60a917;fontColor=#ffffff;strokeColor=#2D7600;" parent="1" vertex="1">
          <mxGeometry x="857" y="119.24" width="120" height="40" as="geometry" />
        </mxCell>
        <mxCell id="gpTX0k5Hapi8h8UuWfs9-15" value="" style="endArrow=classic;html=1;rounded=0;entryX=0.5;entryY=0;entryDx=0;entryDy=0;edgeStyle=orthogonalEdgeStyle;exitX=0.5;exitY=1;exitDx=0;exitDy=0;" parent="1" source="gpTX0k5Hapi8h8UuWfs9-1" target="gpTX0k5Hapi8h8UuWfs9-14" edge="1">
          <mxGeometry width="50" height="50" relative="1" as="geometry">
            <mxPoint x="372" y="89.24" as="sourcePoint" />
            <mxPoint x="782" y="139.24" as="targetPoint" />
            <Array as="points">
              <mxPoint x="482" y="99.24" />
              <mxPoint x="917" y="99.24" />
            </Array>
          </mxGeometry>
        </mxCell>
        <mxCell id="gpTX0k5Hapi8h8UuWfs9-23" value="PATCH_LOAD_DATA" style="text;strokeColor=none;fillColor=none;html=1;fontSize=24;fontStyle=1;verticalAlign=middle;align=center;" parent="1" vertex="1">
          <mxGeometry x="882" y="750" width="245" height="40" as="geometry" />
        </mxCell>
        <mxCell id="1IfVXIK7xY-bAuSIrkzh-1" value="DELAY" style="rounded=0;whiteSpace=wrap;html=1;fontSize=10;fillColor=#60a917;fontColor=#ffffff;strokeColor=#2D7600;" parent="1" vertex="1">
          <mxGeometry x="64.5" y="199.24" width="75" height="40" as="geometry" />
        </mxCell>
        <mxCell id="1IfVXIK7xY-bAuSIrkzh-2" value="" style="endArrow=classic;html=1;rounded=0;entryX=0.5;entryY=0;entryDx=0;entryDy=0;edgeStyle=orthogonalEdgeStyle;exitX=0.5;exitY=1;exitDx=0;exitDy=0;" parent="1" source="gpTX0k5Hapi8h8UuWfs9-2" target="1IfVXIK7xY-bAuSIrkzh-1" edge="1">
          <mxGeometry width="50" height="50" relative="1" as="geometry">
            <mxPoint x="372" y="89.24" as="sourcePoint" />
            <mxPoint x="232" y="139.24" as="targetPoint" />
            <Array as="points">
              <mxPoint x="102" y="199.24" />
            </Array>
          </mxGeometry>
        </mxCell>
        <mxCell id="1IfVXIK7xY-bAuSIrkzh-3" value="PATCH_LOAD_QUANTISE_LFO_SPEED" style="rounded=0;whiteSpace=wrap;html=1;fontSize=10;fillColor=#60a917;fontColor=#ffffff;strokeColor=#2D7600;" parent="1" vertex="1">
          <mxGeometry x="412" y="279.24" width="210" height="40" as="geometry" />
        </mxCell>
        <mxCell id="1IfVXIK7xY-bAuSIrkzh-4" value="PATCH_LOAD_QUANTISE_LFO_DELAY" style="rounded=0;whiteSpace=wrap;html=1;fontSize=10;fillColor=#60a917;fontColor=#ffffff;strokeColor=#2D7600;" parent="1" vertex="1">
          <mxGeometry x="642" y="279.24" width="210" height="40" as="geometry" />
        </mxCell>
        <mxCell id="1IfVXIK7xY-bAuSIrkzh-5" value="PATCH_LOAD_QUANTISE_VALUE" style="rounded=0;whiteSpace=wrap;html=1;fontSize=10;fillColor=#60a917;fontColor=#ffffff;strokeColor=#2D7600;" parent="1" vertex="1">
          <mxGeometry x="872" y="279.24" width="190" height="40" as="geometry" />
        </mxCell>
        <mxCell id="1IfVXIK7xY-bAuSIrkzh-6" value="" style="endArrow=classic;html=1;rounded=0;entryX=0.5;entryY=0;entryDx=0;entryDy=0;edgeStyle=orthogonalEdgeStyle;exitX=0.5;exitY=1;exitDx=0;exitDy=0;" parent="1" source="gpTX0k5Hapi8h8UuWfs9-14" target="1IfVXIK7xY-bAuSIrkzh-5" edge="1">
          <mxGeometry width="50" height="50" relative="1" as="geometry">
            <mxPoint x="922" y="159.24" as="sourcePoint" />
            <mxPoint x="937" y="349.24" as="targetPoint" />
            <Array as="points">
              <mxPoint x="917" y="239.24" />
              <mxPoint x="967" y="239.24" />
            </Array>
          </mxGeometry>
        </mxCell>
        <mxCell id="1IfVXIK7xY-bAuSIrkzh-7" value="" style="endArrow=classic;html=1;rounded=0;entryX=0.5;entryY=0;entryDx=0;entryDy=0;edgeStyle=orthogonalEdgeStyle;exitX=0.5;exitY=1;exitDx=0;exitDy=0;" parent="1" source="gpTX0k5Hapi8h8UuWfs9-14" target="1IfVXIK7xY-bAuSIrkzh-4" edge="1">
          <mxGeometry width="50" height="50" relative="1" as="geometry">
            <mxPoint x="922" y="159.24" as="sourcePoint" />
            <mxPoint x="977" y="209.24" as="targetPoint" />
            <Array as="points">
              <mxPoint x="917" y="239.24" />
              <mxPoint x="747" y="239.24" />
            </Array>
          </mxGeometry>
        </mxCell>
        <mxCell id="1IfVXIK7xY-bAuSIrkzh-8" value="" style="endArrow=classic;html=1;rounded=0;entryX=0.579;entryY=-0.075;entryDx=0;entryDy=0;edgeStyle=orthogonalEdgeStyle;exitX=0.5;exitY=1;exitDx=0;exitDy=0;entryPerimeter=0;" parent="1" source="gpTX0k5Hapi8h8UuWfs9-14" target="1IfVXIK7xY-bAuSIrkzh-3" edge="1">
          <mxGeometry width="50" height="50" relative="1" as="geometry">
            <mxPoint x="717" y="159.24" as="sourcePoint" />
            <mxPoint x="542" y="199.24" as="targetPoint" />
            <Array as="points">
              <mxPoint x="917" y="239.24" />
              <mxPoint x="534" y="239.24" />
            </Array>
          </mxGeometry>
        </mxCell>
        <mxCell id="1IfVXIK7xY-bAuSIrkzh-9" value="" style="endArrow=classic;html=1;rounded=0;edgeStyle=orthogonalEdgeStyle;entryX=1;entryY=0.5;entryDx=0;entryDy=0;" parent="1" edge="1" target="1IfVXIK7xY-bAuSIrkzh-10">
          <mxGeometry width="50" height="50" relative="1" as="geometry">
            <mxPoint x="260" y="160" as="sourcePoint" />
            <mxPoint x="322" y="359.24" as="targetPoint" />
            <Array as="points">
              <mxPoint x="260" y="299" />
            </Array>
          </mxGeometry>
        </mxCell>
        <mxCell id="1IfVXIK7xY-bAuSIrkzh-10" value="PATCH_LOAD_OPERATOR_EG_RATES" style="rounded=0;whiteSpace=wrap;html=1;fontSize=10;fillColor=#60a917;fontColor=#ffffff;strokeColor=#2D7600;" parent="1" vertex="1">
          <mxGeometry x="22" y="279.24" width="196" height="40" as="geometry" />
        </mxCell>
        <mxCell id="1IfVXIK7xY-bAuSIrkzh-11" value="PATCH_LOAD_OPERATOR_EG_LEVELS" style="rounded=0;whiteSpace=wrap;html=1;fontSize=10;fillColor=#60a917;fontColor=#ffffff;strokeColor=#2D7600;" parent="1" vertex="1">
          <mxGeometry x="22" y="360" width="210" height="40" as="geometry" />
        </mxCell>
        <mxCell id="1IfVXIK7xY-bAuSIrkzh-12" value="PATCH_LOAD_OPERATOR_KBD_RATE_SCALING" style="rounded=0;whiteSpace=wrap;html=1;fontSize=10;fillColor=#60a917;fontColor=#ffffff;strokeColor=#2D7600;" parent="1" vertex="1">
          <mxGeometry x="408" y="368.48" width="260" height="40" as="geometry" />
        </mxCell>
        <mxCell id="1IfVXIK7xY-bAuSIrkzh-13" value="PATCH_GET_PTR_TO_SELECTED_OP" style="rounded=0;whiteSpace=wrap;html=1;fontSize=10;fillColor=#60a917;fontColor=#ffffff;strokeColor=#2D7600;" parent="1" vertex="1">
          <mxGeometry x="22" y="720" width="210" height="40" as="geometry" />
        </mxCell>
        <mxCell id="1IfVXIK7xY-bAuSIrkzh-14" value="PATCH_LOAD_OPERATOR_PITCH" style="rounded=0;whiteSpace=wrap;html=1;fontSize=10;" parent="1" vertex="1">
          <mxGeometry x="397" y="700" width="210" height="40" as="geometry" />
        </mxCell>
        <mxCell id="1IfVXIK7xY-bAuSIrkzh-15" value="PATCH_LOAD_OPERATOR_KBD_VEL_SENS" style="rounded=0;whiteSpace=wrap;html=1;fontSize=10;fillColor=#60a917;fontColor=#ffffff;strokeColor=#2D7600;" parent="1" vertex="1">
          <mxGeometry x="397" y="470" width="260" height="40" as="geometry" />
        </mxCell>
        <mxCell id="1IfVXIK7xY-bAuSIrkzh-16" value="PATCH_LOAD_OPERATOR_DETUNE" style="rounded=0;whiteSpace=wrap;html=1;fontSize=10;fillColor=#60a917;fontColor=#ffffff;strokeColor=#2D7600;" parent="1" vertex="1">
          <mxGeometry x="397" y="580" width="198" height="40" as="geometry" />
        </mxCell>
        <mxCell id="1IfVXIK7xY-bAuSIrkzh-17" value="PATCH_LOAD_OPERATOR_KBD_SCALING" style="rounded=0;whiteSpace=wrap;html=1;fontSize=10;fillColor=#fa6800;fontColor=#000000;strokeColor=#C73500;" parent="1" vertex="1">
          <mxGeometry x="30" y="460" width="260" height="40" as="geometry" />
        </mxCell>
        <mxCell id="AaG6gOxwxbP_T1DJBGn1-2" value="" style="endArrow=classic;html=1;rounded=0;edgeStyle=orthogonalEdgeStyle;entryX=0.468;entryY=-0.035;entryDx=0;entryDy=0;entryPerimeter=0;exitX=0;exitY=0.5;exitDx=0;exitDy=0;" edge="1" parent="1" source="1IfVXIK7xY-bAuSIrkzh-10" target="1IfVXIK7xY-bAuSIrkzh-13">
          <mxGeometry width="50" height="50" relative="1" as="geometry">
            <mxPoint x="312" y="169.24" as="sourcePoint" />
            <mxPoint x="101.33000000000015" y="716.3599999999999" as="targetPoint" />
            <Array as="points">
              <mxPoint x="10" y="299" />
              <mxPoint x="10" y="680" />
              <mxPoint x="120" y="680" />
            </Array>
          </mxGeometry>
        </mxCell>
        <mxCell id="AaG6gOxwxbP_T1DJBGn1-3" value="&lt;font style=&quot;font-size: 10px;&quot;&gt;P_EGS_OP_EG_RATES&lt;/font&gt;" style="shape=hexagon;perimeter=hexagonPerimeter2;whiteSpace=wrap;html=1;fixedSize=1;fillColor=#0050ef;fontColor=#ffffff;strokeColor=#001DBC;size=15.5;" vertex="1" parent="1">
          <mxGeometry x="64.5" y="330" width="135.5" height="20" as="geometry" />
        </mxCell>
        <mxCell id="AaG6gOxwxbP_T1DJBGn1-4" value="" style="endArrow=classic;html=1;rounded=0;edgeStyle=orthogonalEdgeStyle;" edge="1" parent="1">
          <mxGeometry width="50" height="50" relative="1" as="geometry">
            <mxPoint x="130" y="319" as="sourcePoint" />
            <mxPoint x="130" y="330" as="targetPoint" />
            <Array as="points">
              <mxPoint x="130" y="330" />
            </Array>
          </mxGeometry>
        </mxCell>
        <mxCell id="AaG6gOxwxbP_T1DJBGn1-5" value="" style="endArrow=classic;html=1;rounded=0;edgeStyle=orthogonalEdgeStyle;entryX=1;entryY=0.5;entryDx=0;entryDy=0;" edge="1" parent="1" target="1IfVXIK7xY-bAuSIrkzh-11">
          <mxGeometry width="50" height="50" relative="1" as="geometry">
            <mxPoint x="260" y="159" as="sourcePoint" />
            <mxPoint x="350" y="389" as="targetPoint" />
            <Array as="points">
              <mxPoint x="260" y="159" />
              <mxPoint x="260" y="380" />
            </Array>
          </mxGeometry>
        </mxCell>
        <mxCell id="AaG6gOxwxbP_T1DJBGn1-6" value="&lt;font style=&quot;font-size: 10px;&quot;&gt;P_EGS_OP_EG_LEVELS&lt;/font&gt;" style="shape=hexagon;perimeter=hexagonPerimeter2;whiteSpace=wrap;html=1;fixedSize=1;fillColor=#0050ef;fontColor=#ffffff;strokeColor=#001DBC;" vertex="1" parent="1">
          <mxGeometry x="52" y="414" width="150" height="20" as="geometry" />
        </mxCell>
        <mxCell id="AaG6gOxwxbP_T1DJBGn1-7" value="" style="endArrow=classic;html=1;rounded=0;edgeStyle=orthogonalEdgeStyle;entryX=0.5;entryY=0;entryDx=0;entryDy=0;exitX=0.5;exitY=1;exitDx=0;exitDy=0;" edge="1" parent="1" target="AaG6gOxwxbP_T1DJBGn1-6" source="1IfVXIK7xY-bAuSIrkzh-11">
          <mxGeometry width="50" height="50" relative="1" as="geometry">
            <mxPoint x="473" y="419.24" as="sourcePoint" />
            <mxPoint x="367" y="526.24" as="targetPoint" />
            <Array as="points">
              <mxPoint x="127" y="414" />
            </Array>
          </mxGeometry>
        </mxCell>
        <mxCell id="AaG6gOxwxbP_T1DJBGn1-8" value="" style="endArrow=classic;html=1;rounded=0;edgeStyle=orthogonalEdgeStyle;exitX=0;exitY=0.5;exitDx=0;exitDy=0;" edge="1" parent="1" source="1IfVXIK7xY-bAuSIrkzh-11">
          <mxGeometry width="50" height="50" relative="1" as="geometry">
            <mxPoint x="371" y="430" as="sourcePoint" />
            <mxPoint x="121" y="720" as="targetPoint" />
            <Array as="points">
              <mxPoint x="10" y="380" />
              <mxPoint x="10" y="679" />
              <mxPoint x="121" y="679" />
            </Array>
          </mxGeometry>
        </mxCell>
        <mxCell id="AaG6gOxwxbP_T1DJBGn1-9" value="&lt;font style=&quot;font-size: 10px;&quot;&gt;M_PATCH_PITCH_EG_VALUES&lt;/font&gt;" style="shape=hexagon;perimeter=hexagonPerimeter2;whiteSpace=wrap;html=1;fixedSize=1;fillColor=#0050ef;fontColor=#ffffff;strokeColor=#001DBC;size=10;" vertex="1" parent="1">
          <mxGeometry x="542" y="179.24" width="185" height="20" as="geometry" />
        </mxCell>
        <mxCell id="AaG6gOxwxbP_T1DJBGn1-10" value="" style="endArrow=classic;html=1;rounded=0;edgeStyle=orthogonalEdgeStyle;exitX=1;exitY=0.5;exitDx=0;exitDy=0;" edge="1" parent="1">
          <mxGeometry width="50" height="50" relative="1" as="geometry">
            <mxPoint x="623" y="139.24" as="sourcePoint" />
            <mxPoint x="638" y="179.24" as="targetPoint" />
            <Array as="points">
              <mxPoint x="638" y="139.24" />
            </Array>
          </mxGeometry>
        </mxCell>
        <mxCell id="AaG6gOxwxbP_T1DJBGn1-11" value="&lt;font style=&quot;font-size: 10px;&quot;&gt;P_OPS_MODE&lt;/font&gt;" style="shape=hexagon;perimeter=hexagonPerimeter2;whiteSpace=wrap;html=1;fixedSize=1;fillColor=#0050ef;fontColor=#ffffff;strokeColor=#001DBC;size=10;" vertex="1" parent="1">
          <mxGeometry x="772" y="179.24" width="100" height="20" as="geometry" />
        </mxCell>
        <mxCell id="AaG6gOxwxbP_T1DJBGn1-12" value="&lt;font style=&quot;font-size: 10px;&quot;&gt;P_OPS_ALG_FDBK&lt;/font&gt;" style="shape=hexagon;perimeter=hexagonPerimeter2;whiteSpace=wrap;html=1;fixedSize=1;fillColor=#0050ef;fontColor=#ffffff;strokeColor=#001DBC;size=10;" vertex="1" parent="1">
          <mxGeometry x="762" y="199.24" width="120" height="20" as="geometry" />
        </mxCell>
        <mxCell id="AaG6gOxwxbP_T1DJBGn1-13" value="" style="endArrow=classic;html=1;rounded=0;edgeStyle=orthogonalEdgeStyle;exitX=1;exitY=0.5;exitDx=0;exitDy=0;" edge="1" parent="1" source="gpTX0k5Hapi8h8UuWfs9-12" target="AaG6gOxwxbP_T1DJBGn1-11">
          <mxGeometry width="50" height="50" relative="1" as="geometry">
            <mxPoint x="633" y="149.24" as="sourcePoint" />
            <mxPoint x="827" y="180" as="targetPoint" />
            <Array as="points">
              <mxPoint x="827" y="139" />
            </Array>
          </mxGeometry>
        </mxCell>
        <mxCell id="AaG6gOxwxbP_T1DJBGn1-14" value="&lt;font style=&quot;font-size: 10px;&quot;&gt;M_LFO_PHASE_INCREMENT&lt;/font&gt;" style="shape=hexagon;perimeter=hexagonPerimeter2;whiteSpace=wrap;html=1;fixedSize=1;fillColor=#0050ef;fontColor=#ffffff;strokeColor=#001DBC;size=10;" vertex="1" parent="1">
          <mxGeometry x="987" y="148.86" width="160" height="20" as="geometry" />
        </mxCell>
        <mxCell id="AaG6gOxwxbP_T1DJBGn1-16" value="&lt;font style=&quot;font-size: 10px;&quot;&gt;M_LFO_DELAY_INCREMENT&lt;/font&gt;" style="shape=hexagon;perimeter=hexagonPerimeter2;whiteSpace=wrap;html=1;fixedSize=1;fillColor=#0050ef;fontColor=#ffffff;strokeColor=#001DBC;size=10;" vertex="1" parent="1">
          <mxGeometry x="987" y="168.86" width="160" height="20" as="geometry" />
        </mxCell>
        <mxCell id="AaG6gOxwxbP_T1DJBGn1-17" value="&lt;font style=&quot;font-size: 10px;&quot;&gt;M_LFO_PITCH_MOD_DEPTH&lt;/font&gt;" style="shape=hexagon;perimeter=hexagonPerimeter2;whiteSpace=wrap;html=1;fixedSize=1;fillColor=#0050ef;fontColor=#ffffff;strokeColor=#001DBC;size=10;" vertex="1" parent="1">
          <mxGeometry x="987" y="188.86" width="160" height="20" as="geometry" />
        </mxCell>
        <mxCell id="AaG6gOxwxbP_T1DJBGn1-18" value="&lt;font style=&quot;font-size: 10px;&quot;&gt;M_LFO_PICTH_MOD_SENSE&lt;/font&gt;" style="shape=hexagon;perimeter=hexagonPerimeter2;whiteSpace=wrap;html=1;fixedSize=1;fillColor=#0050ef;fontColor=#ffffff;strokeColor=#001DBC;size=10;" vertex="1" parent="1">
          <mxGeometry x="987" y="249.62" width="160" height="20" as="geometry" />
        </mxCell>
        <mxCell id="AaG6gOxwxbP_T1DJBGn1-19" value="&lt;font style=&quot;font-size: 10px;&quot;&gt;M_LFO_AMP_MOD_DEPTH&lt;/font&gt;" style="shape=hexagon;perimeter=hexagonPerimeter2;whiteSpace=wrap;html=1;fixedSize=1;fillColor=#0050ef;fontColor=#ffffff;strokeColor=#001DBC;size=10;" vertex="1" parent="1">
          <mxGeometry x="987" y="208.86" width="160" height="20" as="geometry" />
        </mxCell>
        <mxCell id="AaG6gOxwxbP_T1DJBGn1-20" value="&lt;font style=&quot;font-size: 10px;&quot;&gt;M_LFO_WAVEFORM&lt;/font&gt;" style="shape=hexagon;perimeter=hexagonPerimeter2;whiteSpace=wrap;html=1;fixedSize=1;fillColor=#0050ef;fontColor=#ffffff;strokeColor=#001DBC;size=10;" vertex="1" parent="1">
          <mxGeometry x="987" y="229.62" width="160" height="20" as="geometry" />
        </mxCell>
        <mxCell id="AaG6gOxwxbP_T1DJBGn1-21" value="" style="endArrow=classic;html=1;rounded=0;edgeStyle=orthogonalEdgeStyle;exitX=1;exitY=0.25;exitDx=0;exitDy=0;" edge="1" parent="1" source="gpTX0k5Hapi8h8UuWfs9-14">
          <mxGeometry width="50" height="50" relative="1" as="geometry">
            <mxPoint x="1047" y="108.86" as="sourcePoint" />
            <mxPoint x="1062" y="148.86" as="targetPoint" />
            <Array as="points">
              <mxPoint x="1062" y="129" />
            </Array>
          </mxGeometry>
        </mxCell>
        <mxCell id="AaG6gOxwxbP_T1DJBGn1-23" value="" style="endArrow=classic;html=1;rounded=0;edgeStyle=orthogonalEdgeStyle;" edge="1" parent="1">
          <mxGeometry width="50" height="50" relative="1" as="geometry">
            <mxPoint x="260" y="159" as="sourcePoint" />
            <mxPoint x="260" y="460" as="targetPoint" />
            <Array as="points">
              <mxPoint x="260" y="460" />
            </Array>
          </mxGeometry>
        </mxCell>
        <mxCell id="AaG6gOxwxbP_T1DJBGn1-24" value="&lt;font style=&quot;font-size: 10px;&quot;&gt;P_EGS_OP_DETUNE&lt;/font&gt;" style="shape=hexagon;perimeter=hexagonPerimeter2;whiteSpace=wrap;html=1;fixedSize=1;fillColor=#0050ef;fontColor=#ffffff;strokeColor=#001DBC;" vertex="1" parent="1">
          <mxGeometry x="539" y="640.24" width="150" height="20" as="geometry" />
        </mxCell>
        <mxCell id="AaG6gOxwxbP_T1DJBGn1-25" value="" style="endArrow=classic;html=1;rounded=0;edgeStyle=orthogonalEdgeStyle;entryX=0.5;entryY=0;entryDx=0;entryDy=0;" edge="1" parent="1" target="AaG6gOxwxbP_T1DJBGn1-24">
          <mxGeometry width="50" height="50" relative="1" as="geometry">
            <mxPoint x="597" y="600" as="sourcePoint" />
            <mxPoint x="498" y="707.24" as="targetPoint" />
            <Array as="points">
              <mxPoint x="614" y="600.24" />
            </Array>
          </mxGeometry>
        </mxCell>
        <mxCell id="AaG6gOxwxbP_T1DJBGn1-26" value="&lt;font style=&quot;font-size: 10px;&quot;&gt;M_PATCH_OP_SENSE&lt;/font&gt;" style="shape=hexagon;perimeter=hexagonPerimeter2;whiteSpace=wrap;html=1;fixedSize=1;fillColor=#0050ef;fontColor=#ffffff;strokeColor=#001DBC;" vertex="1" parent="1">
          <mxGeometry x="600" y="531" width="150" height="20" as="geometry" />
        </mxCell>
        <mxCell id="AaG6gOxwxbP_T1DJBGn1-27" value="" style="endArrow=classic;html=1;rounded=0;edgeStyle=orthogonalEdgeStyle;entryX=0.5;entryY=0;entryDx=0;entryDy=0;" edge="1" parent="1" target="AaG6gOxwxbP_T1DJBGn1-26">
          <mxGeometry width="50" height="50" relative="1" as="geometry">
            <mxPoint x="658" y="490.76" as="sourcePoint" />
            <mxPoint x="559" y="598" as="targetPoint" />
            <Array as="points">
              <mxPoint x="675" y="491" />
            </Array>
          </mxGeometry>
        </mxCell>
        <mxCell id="AaG6gOxwxbP_T1DJBGn1-28" value="" style="endArrow=classic;html=1;rounded=0;edgeStyle=orthogonalEdgeStyle;entryX=0.489;entryY=0.005;entryDx=0;entryDy=0;exitX=1;exitY=0.5;exitDx=0;exitDy=0;entryPerimeter=0;" edge="1" parent="1" source="1IfVXIK7xY-bAuSIrkzh-12" target="AaG6gOxwxbP_T1DJBGn1-29">
          <mxGeometry width="50" height="50" relative="1" as="geometry">
            <mxPoint x="579" y="469.24" as="sourcePoint" />
            <mxPoint x="596" y="509.24" as="targetPoint" />
            <Array as="points">
              <mxPoint x="690" y="388" />
              <mxPoint x="690" y="420" />
            </Array>
          </mxGeometry>
        </mxCell>
        <mxCell id="AaG6gOxwxbP_T1DJBGn1-29" value="&lt;font style=&quot;font-size: 10px;&quot;&gt;P_EGS_OP_SENS_SCALING&lt;/font&gt;" style="shape=hexagon;perimeter=hexagonPerimeter2;whiteSpace=wrap;html=1;fixedSize=1;fillColor=#0050ef;fontColor=#ffffff;strokeColor=#001DBC;" vertex="1" parent="1">
          <mxGeometry x="607" y="420" width="170" height="20" as="geometry" />
        </mxCell>
      </root>
    </mxGraphModel>
  </diagram>
</mxfile>
